<?xml version="1.0" encoding="utf-8"?>
<!-- Generator: Adobe Illustrator 26.3.1, SVG Export Plug-In . SVG Version: 6.00 Build 0)  -->
<svg version="1.1" id="图层_1" xmlns="http://www.w3.org/2000/svg" xmlns:xlink="http://www.w3.org/1999/xlink" x="0px" y="0px"
	 viewBox="0 0 729.13 786.05" style="enable-background:new 0 0 729.13 786.05;" xml:space="preserve">
<style type="text/css">
	.st0{fill:#FFFFFF;}
</style>
<g>
	<path class="st0" d="M369.47,13.68c-197.66,0-357.89,160.23-357.89,357.88s160.23,357.89,357.89,357.89
		s357.88-160.23,357.88-357.89S567.12,13.68,369.47,13.68z M74.29,564.38c0.57-0.72,1.13-1.44,1.71-2.15
		c24.64-30.39,52.91-56.7,86.35-77.25c1.52-0.94,3.14-1.73,5.88-1.93c-0.98,2.64-1.9,5.31-2.96,7.92
		c-3.53,8.75-8.07,17.23-10.42,26.28c-3.4,13.11-0.54,26.22,6.22,37.58c10.11,16.99,20.82,33.74,32.58,49.62
		c27.64,37.31,56.67,73.48,87.63,108.01C195.23,690.36,121.85,636.62,74.29,564.38z M407.33,657.24c-30.09,13.7-58.9,11.1-86.36-7
		c-17.94-11.82-33-27-47.67-42.48c-42.13-44.45-80.16-92.22-115.46-142.27c-19.3-27.37-28.48-58.03-32.17-90.69
		c-4.99-44.1,0.95-86.65,19.41-127.54c-45.53-26.55-48.29-84.84-17.42-116.73c30.4-31.4,83.87-31.41,113.77,7.59
		c7.14-3.71,14.18-7.8,21.55-11.13c77.53-35.02,153.85-33.26,228.66,8.06c4.57,2.52,6.74,2.67,10.38-1.65
		c19.58-23.24,51.8-31.49,80.81-21.29c28.11,9.88,47.68,36.2,48.81,66.28c1.08,28.71-10.95,50.78-34.81,66.56
		c-0.96,0.64-1.94,1.26-3.24,2.1c0.78,1.97,1.54,3.92,2.33,5.86c24.13,59.28,26.37,119.22,3.45,179.14
		c-5.68,14.86-15.02,28.55-24.04,41.86c-35.3,52.05-73.51,101.83-118,146.49C442.58,635.21,426.59,648.48,407.33,657.24z
		 M457.57,712.44c37.09-41.54,72.14-84.77,104.01-130.53c5.51-7.91,10.63-16.14,15.27-24.59c11.11-20.23,11.28-40.64-0.14-60.92
		c-1.47-2.61-2.98-5.21-4.19-7.95c-0.74-1.68-0.92-3.61-1.36-5.42c0.35-0.24,0.7-0.49,1.05-0.73c5.16,3.25,10.47,6.29,15.46,9.78
		c29.94,20.93,55.65,44.9,76.95,72.04C617.1,636.46,543.7,690.29,457.57,712.44z"/>
	<path class="st0" d="M455.53,220.13c-14.8-8.75-32.58-6.63-43.35,5.16c12.93,7.88,16.87,15.75,12.98,25.88
		c-3.63,9.47-12.49,13.33-25.62,10.67c2.31,16.81,9.34,29.99,24.11,37.99c16.16,8.75,34.32,4.56,45.44-10.02
		C485.27,268.58,478.48,233.69,455.53,220.13z"/>
	<path class="st0" d="M288.42,302.85c23.73,7,49.72-13.61,50.49-40.01c-15.85-0.34-22.05-3.83-24.66-13.86
		c-2.44-9.37,1.36-16.45,13.04-23.57c-1.99-1.68-3.7-3.42-5.68-4.76c-12.11-8.18-27.75-7.79-40.28,0.9
		c-20.56,14.26-26.61,44.79-13.02,65.84C273.16,294.91,279.73,300.29,288.42,302.85z"/>
	<path d="M587.69,492.07c-4.99-3.49-10.3-6.53-15.46-9.78c-0.35,0.24-0.7,0.49-1.05,0.73c0.43,1.81,0.62,3.74,1.36,5.42
		c1.2,2.73,2.72,5.34,4.19,7.95c11.42,20.29,11.25,40.69,0.14,60.92c-4.64,8.45-9.76,16.68-15.27,24.59
		c-31.88,45.76-66.92,88.99-104.01,130.53c86.12-22.15,159.53-75.98,207.07-148.33C643.33,536.97,617.63,513,587.69,492.07z"/>
	<path d="M161.08,554.84c-6.76-11.36-9.62-24.47-6.22-37.58c2.35-9.05,6.9-17.53,10.42-26.28c1.05-2.61,1.97-5.28,2.96-7.92
		c-2.74,0.2-4.36,0.99-5.88,1.93c-33.43,20.55-61.71,46.86-86.35,77.25c-0.58,0.71-1.14,1.43-1.71,2.15
		c47.55,72.23,120.93,125.97,206.99,148.07c-30.95-34.53-59.98-70.69-87.63-108.01C181.9,588.57,171.19,571.83,161.08,554.84z"/>
	<path d="M599.37,432.05c22.92-59.92,20.68-119.87-3.45-179.14c-0.79-1.94-1.55-3.9-2.33-5.86c1.3-0.84,2.28-1.46,3.24-2.1
		c23.86-15.77,35.89-37.84,34.81-66.56c-1.13-30.07-20.7-56.4-48.81-66.28c-29.01-10.2-61.23-1.95-80.81,21.29
		c-3.64,4.32-5.81,4.17-10.38,1.65c-74.81-41.32-151.14-43.08-228.66-8.06c-7.38,3.33-14.41,7.42-21.55,11.13
		c-29.9-39-83.38-38.99-113.77-7.59c-30.87,31.89-28.11,90.19,17.42,116.73c-18.47,40.89-24.4,83.45-19.41,127.54
		c3.69,32.67,12.87,63.33,32.17,90.69c35.3,50.04,73.33,97.82,115.46,142.27c14.66,15.47,29.72,30.65,47.67,42.48
		c27.47,18.1,56.27,20.7,86.36,7c19.26-8.77,35.25-22.03,50.01-36.84c44.49-44.67,82.7-94.44,118-146.49
		C584.36,460.6,593.69,446.91,599.37,432.05z M281.31,221.54c12.53-8.69,28.17-9.08,40.28-0.9c1.98,1.34,3.69,3.08,5.68,4.76
		c-11.68,7.12-15.48,14.2-13.04,23.57c2.61,10.03,8.82,13.52,24.66,13.86c-0.77,26.4-26.76,47.01-50.49,40.01
		c-8.69-2.56-15.26-7.94-20.12-15.46C254.7,266.33,260.75,235.8,281.31,221.54z M369.38,518.6
		c-57.36-0.05-102.84-46.41-102.69-104.69c0.14-55.37,47.03-101.3,103.24-101.13c56.42,0.17,102.65,46.57,102.57,102.94
		C472.42,472.43,426.09,518.65,369.38,518.6z M469.09,289.81c-11.12,14.58-29.28,18.77-45.44,10.02c-14.77-8-21.8-21.18-24.11-37.99
		c13.12,2.66,21.99-1.21,25.62-10.67c3.89-10.13-0.06-18-12.98-25.88c10.77-11.79,28.55-13.91,43.35-5.16
		C478.48,233.69,485.27,268.58,469.09,289.81z"/>
	<path class="st0" d="M369.93,312.78c-56.22-0.17-103.1,45.76-103.24,101.13c-0.15,58.27,45.33,104.64,102.69,104.69
		c56.71,0.05,103.04-46.17,103.12-102.88C472.58,359.35,426.35,312.95,369.93,312.78z M435.95,453.79
		c-8.37,5.75-16.62,11.67-24.99,17.41c-4.83,3.31-6.68,2.8-9.2-2.55c-7.08-15.04-14.06-30.12-21.07-45.2
		c-3.53-7.59-4.96-8.24-13.07-7.16c-12.2,1.63-23.18-0.92-31.94-10.21c-7.86-8.34-7.33-16.95,1.74-23.87
		c13.6-10.36,28-19.25,45.12-22.54c15.28-2.93,21.97,2.71,22.03,18.32c0.09,10.51-4.7,18.81-11.81,26.07
		c-5.67,5.79-5.82,7.08-2.33,14.42c5.72,12.01,11.37,24.05,17.04,36.08c2.86,6.08,2.87,6.09,8.4,1.94c4.8-3.59,9.7-7.06,14.3-10.89
		c3.26-2.73,5.08-1.5,7.28,1.31C439.93,450.08,438.73,451.88,435.95,453.79z"/>
	<path d="M430.17,445.61c-4.59,3.84-9.5,7.3-14.3,10.89c-5.54,4.15-5.54,4.13-8.4-1.94c-5.67-12.03-11.32-24.07-17.04-36.08
		c-3.5-7.34-3.35-8.63,2.33-14.42c7.11-7.26,11.91-15.55,11.81-26.07c-0.06-15.61-6.75-21.26-22.03-18.32
		c-17.13,3.29-31.53,12.18-45.12,22.54c-9.07,6.91-9.6,15.53-1.74,23.87c8.76,9.29,19.74,11.84,31.94,10.21
		c8.11-1.08,9.54-0.43,13.07,7.16c7.01,15.07,13.99,30.16,21.07,45.2c2.51,5.35,4.37,5.86,9.2,2.55
		c8.38-5.74,16.62-11.66,24.99-17.41c2.78-1.91,3.98-3.7,1.51-6.86C435.25,444.11,433.44,442.88,430.17,445.61z"/>
</g>
</svg>
